<?xml version="1.0" encoding="UTF-8" standalone="no"?>
<svg
   xmlns:dc="http://purl.org/dc/elements/1.1/"
   xmlns:cc="http://creativecommons.org/ns#"
   xmlns:rdf="http://www.w3.org/1999/02/22-rdf-syntax-ns#"
   xmlns:svg="http://www.w3.org/2000/svg"
   xmlns="http://www.w3.org/2000/svg"
   xmlns:sodipodi="http://sodipodi.sourceforge.net/DTD/sodipodi-0.dtd"
   xmlns:inkscape="http://www.inkscape.org/namespaces/inkscape"
   width="22"
   height="22"
   version="1"
   id="svg7"
   sodipodi:docname="telegram_red_10_99.svg"
   inkscape:version="0.92.4 5da689c313, 2019-01-14">
  <metadata
     id="metadata11">
    <rdf:RDF>
      <cc:Work
         rdf:about="">
        <dc:format>image/svg+xml</dc:format>
        <dc:type
           rdf:resource="http://purl.org/dc/dcmitype/StillImage" />
        <dc:title />
      </cc:Work>
    </rdf:RDF>
  </metadata>
  <sodipodi:namedview
     pagecolor="#ffffff"
     bordercolor="#666666"
     borderopacity="1"
     objecttolerance="10"
     gridtolerance="10"
     guidetolerance="10"
     inkscape:pageopacity="0"
     inkscape:pageshadow="2"
     inkscape:window-width="1858"
     inkscape:window-height="1013"
     id="namedview9"
     showgrid="true"
     inkscape:zoom="21.454545"
     inkscape:cx="3.1628263"
     inkscape:cy="13.05416"
     inkscape:window-x="62"
     inkscape:window-y="28"
     inkscape:window-maximized="1"
     inkscape:current-layer="svg7">
    <inkscape:grid
       type="xygrid"
       id="grid832" />
  </sodipodi:namedview>
  <defs
     id="defs3">
    <style
       id="current-color-scheme"
       type="text/css" />
  </defs>
  <path
     d="M12.473 18.859c-.446-.27-.73-.738-1.968-3.24-.684-1.386-1.337-2.617-1.449-2.735-.125-.133-1.158-.682-2.7-1.435C3.31 9.962 3 9.726 3 8.883c0-.393.192-.77.493-.965.103-.068 3.289-1.208 7.079-2.533 6.66-2.33 6.907-2.41 7.362-2.382.394.024.508.064.697.245.284.27.411.645.356 1.046-.06.43-4.84 13.937-5.019 14.176-.379.51-1.022.678-1.496.39z"
     fill="currentColor"
     color="#dfdfdf"
     id="path5"
     style="fill:#dfdfdf;fill-opacity:1" />
  <rect
     style="opacity:1;fill:#5294e2;fill-opacity:1;stroke-width:1.87082851"
     id="rect834"
     width="14"
     height="10"
     x="5"
     y="11"
     ry="2.4081922" />
  <text
     xml:space="preserve"
     style="font-style:normal;font-weight:normal;font-size:4px;line-height:0;font-family:sans-serif;text-align:end;letter-spacing:0px;word-spacing:0px;text-anchor:end;fill:#ffffff;fill-opacity:1;stroke:none"
     x="17.969296"
     y="19.89336"
     id="text838"
     transform="scale(1.0000013,0.9999987)"><tspan
       sodipodi:role="line"
       id="tspan836"
       x="17.969296"
       y="19.89336"
       style="font-size:10.66666698px">99</tspan></text>
</svg>
